<?xml version="1.0" encoding="UTF-8"?><svg id="Layer_1" xmlns="http://www.w3.org/2000/svg" viewBox="0 0 1204.85 576"><defs><style>.cls-1{fill:#212b43;}.cls-2{fill:#fff;}</style></defs><polygon class="cls-1" points="952.85 36 997.68 243.17 1204.85 288 997.68 332.83 952.85 540 908.02 332.83 700.85 288 908.02 243.17 952.85 36"/><polygon class="cls-1" points="1072.88 167.97 991.11 288 1072.88 408.03 952.85 326.26 832.82 408.03 914.59 288 832.82 167.97 952.85 249.74 1072.88 167.97"/><polygon class="cls-2" points="952.85 428.29 929.83 311.02 812.56 288 929.83 264.98 952.85 147.71 975.87 264.98 1093.14 288 975.87 311.02 952.85 428.29"/><polygon class="cls-1" points="952.85 389.36 947.96 292.89 851.49 288 947.96 283.11 952.85 186.64 957.74 283.11 1054.21 288 957.74 292.89 952.85 389.36"/><polygon class="cls-1" points="1017.48 352.63 952.85 296.26 888.22 352.63 944.59 288 888.22 223.37 952.85 279.74 1017.48 223.37 961.11 288 1017.48 352.63"/><polygon class="cls-2" points="981.35 254.88 985.97 259.5 1017.48 223.37 981.35 254.88"/><polygon class="cls-2" points="924.35 254.88 888.22 223.37 919.73 259.5 924.35 254.88"/><polygon class="cls-2" points="981.35 321.12 1017.48 352.63 985.97 316.5 981.35 321.12"/><polygon class="cls-2" points="919.73 316.5 888.22 352.63 924.35 321.12 919.73 316.5"/><polygon class="cls-1" points="288 0 339.23 236.77 576 288 339.23 339.23 288 576 236.77 339.23 0 288 236.77 236.77 288 0"/><polygon class="cls-1" points="425.18 150.82 331.72 288 425.18 425.18 288 331.72 150.82 425.18 244.28 288 150.82 150.82 288 244.28 425.18 150.82"/><polygon class="cls-2" points="288 448.33 261.69 314.31 127.67 288 261.69 261.69 288 127.67 314.31 261.69 448.33 288 314.31 314.31 288 448.33"/><polygon class="cls-1" points="288 403.84 282.41 293.59 172.16 288 282.41 282.41 288 172.16 293.59 282.41 403.84 288 293.59 293.59 288 403.84"/><polygon class="cls-1" points="361.87 361.87 288 297.44 214.13 361.87 278.56 288 214.13 214.13 288 278.56 361.87 214.13 297.44 288 361.87 361.87"/><polygon class="cls-2" points="320.57 250.15 325.85 255.43 361.87 214.13 320.57 250.15"/><polygon class="cls-2" points="255.43 250.15 214.13 214.13 250.15 255.43 255.43 250.15"/><polygon class="cls-2" points="320.57 325.85 361.87 361.87 325.85 320.57 320.57 325.85"/><polygon class="cls-2" points="250.15 320.57 214.13 361.87 255.43 325.85 250.15 320.57"/></svg>
